# xmcd
#
# Track frame offsets:
#	151
#	14140
#	28431
#	42292
#	57435
#	72454
#	84217
#	101098
#	122051
#
# Disc length: 1871 seconds
#
# Revision: 1
# Processed by: cddbd v1.5.1PL0 Copyright (c) Steve Scherf et al.
# Submitted via: audiograbber 1.83.01
#
DISCID=80074d09
DTITLE=Ben E. King - Stand By Me
DYEAR=1900
DGENRE=R&B
TTITLE0=Amor
TTITLE1=Spanish Harlem
TTITLE2=Don't Play That Song
TTITLE3=Seven Letters
TTITLE4=Stand By Me
TTITLE5=I Who Have Nothing
TTITLE6=I Had A Love
TTITLE7=Supernatural Thing Part 1
TTITLE8=Do It In The Name Of Love
EXTD=
EXTT0=
EXTT1=
EXTT2=
EXTT3=
EXTT4=
EXTT5=
EXTT6=
EXTT7=
EXTT8=
PLAYORDER=
